PathFileType	4	(X/Y/Z)	/Users/itak/Documents/Research/Walk-IL/dataset/trc/00065_00006.trc
DataRate	CameraRate	NumFrames	NumMarkers	Units	OrigDataRate	OrigDataStartFrame	OrigNumFrames
100.000000	100.000000	4	53	mm	100.000000	648	741
Frame#	Time	RPSI			LPSI			L3			STRN			T10			C7			CLAV			RBAK			LBAK			LSHO			LUPA			LAEL			LAOL			LWTS			LWPS			LFRA			LIFD			LHPS			LHTS			RSHO			RUPA			RAEL			RAOL			RWTS			RWPS			RFRA			RIFD			RHTS			RHPS			RBHD			LFHD			RFHD			LBHD			LHIP			RHIP			RASI			LASI			LKNE			LTHI			LANK			LTIP			LTOE			LMT1			LMT5			LHEE			RKNE			RTHI			RANK			RTIP			RTOE			RMT1			RMT5			RHEE			
		X1	Y1	Z1	X2	Y2	Z2	X3	Y3	Z3	X4	Y4	Z4	X5	Y5	Z5	X6	Y6	Z6	X7	Y7	Z7	X8	Y8	Z8	X9	Y9	Z9	X10	Y10	Z10	X11	Y11	Z11	X12	Y12	Z12	X13	Y13	Z13	X14	Y14	Z14	X15	Y15	Z15	X16	Y16	Z16	X17	Y17	Z17	X18	Y18	Z18	X19	Y19	Z19	X20	Y20	Z20	X21	Y21	Z21	X22	Y22	Z22	X23	Y23	Z23	X24	Y24	Z24	X25	Y25	Z25	X26	Y26	Z26	X27	Y27	Z27	X28	Y28	Z28	X29	Y29	Z29	X30	Y30	Z30	X31	Y31	Z31	X32	Y32	Z32	X33	Y33	Z33	X34	Y34	Z34	X35	Y35	Z35	X36	Y36	Z36	X37	Y37	Z37	X38	Y38	Z38	X39	Y39	Z39	X40	Y40	Z40	X41	Y41	Z41	X42	Y42	Z42	X43	Y43	Z43	X44	Y44	Z44	X45	Y45	Z45	X46	Y46	Z46	X47	Y47	Z47	X48	Y48	Z48	X49	Y49	Z49	X50	Y50	Z50	X51	Y51	Z51	X52	Y52	Z52	X53	Y53	Z53	

649	6.48	-352.85302734375	1036.395874023438	1231.158569335938	-327.9091491699219	1025.291748046875	1058.553588867188	-337.5282592773438	1090.036743164062	1139.700439453125	-95.57254028320312	1292.884643554688	1208.447387695312	-354.2531433105469	1224.72216796875	1129.052124023438	-297.32470703125	1491.5205078125	1142.555419921875	-125.4716796875	1407.2646484375	1197.808715820312	-377.4311828613281	1353.23291015625	1196.431030273438	-288.9411010742188	1455.192504882812	1039.055908203125	-168.1013946533203	1458.893188476562	1001.161682128906	-158.5921020507812	1333.329467773438	923.2866821289062	-124.3975296020508	1119.954711914062	906.3935546875	-209.5811157226562	1101.275512695312	967.19091796875	-44.0968132019043	887.1804809570312	1001.0283203125	-79.32711791992188	871.529296875	926.2095336914062	-96.29202270507812	1011.934936523438	907.5809326171875	-27.67253303527832	704.176025390625	1031.497192382812	-45.37538909912109	792.3931884765625	944.43505859375	-17.61043357849121	806.3526611328125	1008.717163085938	-287.6558532714844	1459.37353515625	1327.814819335938	-319.2847900390625	1395.046264648438	1385.250366210938	-377.7837219238281	1143.558227539062	1433.337646484375	-335.1305541992188	1109.940185546875	1349.552124023438	-235.5012664794922	886.9181518554688	1451.154663085938	-318.5797119140625	876.77490234375	1477.977416992188	-371.30517578125	1061.4326171875	1451.938598632812	-247.3496246337891	695.16650390625	1428.835571289062	-225.0440216064453	779.1832275390625	1455.9306640625	-295.6199951171875	784.2340698242188	1486.616577148438	-249.8056030273438	1678.85888671875	1114.027954101562	-90.32264709472656	1697.187133789062	1258.28125	-74.04142761230469	1703.221435546875	1133.23876953125	-259.2519836425781	1664.876708984375	1251.054443359375	-203.9704132080078	969.4666137695312	990.8156127929688	-305.8358459472656	963.01123046875	1320.208984375	-180.5273895263672	982.1834716796875	1331.363037109375	-109.6370544433594	981.285400390625	1072.230102539062	-71.29103851318359	510.7696838378906	1072.11181640625	-116.0337219238281	649.2835083007812	1020.975646972656	-240.9412384033203	66.5426025390625	1023.450866699219	-166.8927612304688	275.5428771972656	1032.095581054688	-46.57254791259766	73.64945220947266	1072.583984375	-101.7589416503906	60.76188278198242	1113.98193359375	-134.1934814453125	62.56464767456055	1008.494506835938	-307.8698425292969	62.22284317016602	1086.428100585938	-187.7731018066406	523.7164306640625	1304.873901367188	-209.3592834472656	793.212890625	1340.29443359375	-269.0506591796875	42.00652694702148	1254.657348632812	-204.2372436523438	397.7138671875	1300.133422851562	-50.32663726806641	46.04423904418945	1270.408325195312	-98.27610778808594	54.01178359985352	1218.246459960938	-152.2401885986328	46.39338684082031	1300.27001953125	-300.037109375	48.79739761352539	1189.286010742188	
650	6.49	-350.3034057617188	1036.544677734375	1233.670776367188	-326.4169006347656	1025.613037109375	1060.826049804688	-335.4322204589844	1090.051879882812	1142.079956054688	-93.13164520263672	1292.917602539062	1209.43994140625	-352.2872924804688	1224.803344726562	1131.574462890625	-295.3329162597656	1491.622680664062	1144.858764648438	-123.0631637573242	1407.322143554688	1199.04296875	-375.1307983398438	1353.198364257812	1199.093017578125	-287.5523681640625	1455.365966796875	1041.268920898438	-166.9018859863281	1459.038208007812	1002.681701660156	-157.8631439208984	1333.498046875	924.7755737304688	-123.879997253418	1119.944213867188	908.0443725585938	-209.0818634033203	1101.557373046875	968.8646850585938	-44.03676605224609	887.2005004882812	1003.175048828125	-79.30091857910156	871.4446411132812	928.3936157226562	-95.96002960205078	1011.858276367188	909.4633178710938	-28.03310012817383	704.2828979492188	1034.194946289062	-45.50906753540039	792.26904296875	946.8546752929688	-17.74912452697754	806.3531494140625	1011.0927734375	-284.531494140625	1459.373168945312	1330.083740234375	-315.8035583496094	1394.968383789062	1387.722412109375	-373.5993041992188	1143.141235351562	1435.499267578125	-331.4682922363281	1109.792724609375	1351.378295898438	-230.9206237792969	886.6858520507812	1452.036743164062	-313.8143005371094	876.3148193359375	1479.247802734375	-366.9046020507812	1061.011474609375	1453.882080078125	-242.6380767822266	694.8571166992188	1429.383178710938	-220.3345489501953	778.88232421875	1456.542602539062	-290.6961364746094	783.8734741210938	1487.666625976562	-247.8969573974609	1678.929565429688	1115.816528320312	-87.86132049560547	1697.302734375	1259.436645507812	-72.06144714355469	1703.322387695312	1134.352783203125	-256.8185729980469	1664.989868164062	1252.857177734375	-203.2503509521484	969.6068115234375	992.0549926757812	-302.6357421875	963.0291748046875	1322.318481445312	-177.0907135009766	982.0487060546875	1332.463134765625	-108.0936508178711	981.359375	1072.928833007812	-71.88857269287109	510.8143005371094	1073.33056640625	-116.5221633911133	649.0394287109375	1021.920654296875	-234.0448303222656	64.443359375	1026.542846679688	-163.3140563964844	274.3293762207031	1034.398681640625	-39.37067413330078	74.49409484863281	1074.440551757812	-94.12533569335938	60.6355094909668	1116.138305664062	-127.3302536010742	62.33330917358398	1010.896362304688	-300.5447082519531	58.9289436340332	1089.856811523438	-186.4122009277344	523.502685546875	1305.537109375	-206.61474609375	792.9944458007812	1341.4169921875	-269.048828125	41.9822883605957	1254.7265625	-203.3743896484375	397.5576171875	1300.599731445312	-50.40482330322266	46.10481262207031	1270.48779296875	-98.31250762939453	54.03551864624023	1218.259887695312	-152.2476806640625	46.38033676147461	1300.260498046875	-300.0306396484375	48.80976486206055	1189.373291015625	
651	6.5	-347.788818359375	1036.668701171875	1236.073852539062	-324.9342346191406	1025.9287109375	1062.983154296875	-333.3651428222656	1090.0830078125	1144.341552734375	-90.74878692626953	1292.946899414062	1210.359497070312	-350.3445434570312	1224.8837890625	1133.982788085938	-293.3660278320312	1491.726318359375	1147.062866210938	-120.7006530761719	1407.369750976562	1200.204223632812	-372.7955932617188	1353.14697265625	1201.686157226562	-286.1759033203125	1455.546997070312	1043.38720703125	-165.7071075439453	1459.196044921875	1004.12890625	-157.1277923583984	1333.678466796875	926.1863403320312	-123.4126892089844	1119.947265625	909.6124267578125	-208.6155700683594	1101.850830078125	970.4649658203125	-44.07436752319336	887.1948852539062	1005.164978027344	-79.39994049072266	871.35791015625	930.43115234375	-95.70820617675781	1011.789916992188	911.2356567382812	-28.45876884460449	704.3726196289062	1036.7001953125	-45.76968002319336	792.13037109375	949.1022338867188	-17.96518898010254	806.3324584960938	1013.284729003906	-281.4648742675781	1459.35498046875	1332.253784179688	-312.3999633789062	1394.853881835938	1390.072021484375	-369.5408325195312	1142.709594726562	1437.483032226562	-327.9234313964844	1109.641723632812	1353.038696289062	-226.4872436523438	886.4451904296875	1452.807373046875	-309.2162780761719	875.8526611328125	1480.3564453125	-362.6390075683594	1060.594970703125	1455.643188476562	-238.0135345458984	694.5696411132812	1429.851196289062	-215.7807922363281	778.5972290039062	1457.058959960938	-285.9562072753906	783.5120239257812	1488.57421875	-246.0302276611328	1678.993408203125	1117.515747070312	-85.45400238037109	1697.430786132812	1260.521606445312	-70.13215637207031	1703.423461914062	1135.39794921875	-254.4311981201172	1665.097045898438	1254.562377929688	-202.5376281738281	969.728759765625	993.2357788085938	-299.5326232910156	963.0418090820312	1324.307983398438	-173.7291107177734	981.9315795898438	1333.488647460938	-106.559455871582	981.428466796875	1073.575805664062	-72.38486480712891	510.8931884765625	1074.556396484375	-116.9079513549805	648.8394165039062	1022.922302246094	-227.9676361083984	62.76782989501953	1029.430419921875	-160.1131286621094	273.3527221679688	1036.575805664062	-32.98554992675781	75.10012054443359	1076.09130859375	-87.33683013916016	60.44307708740234	1118.074340820312	-121.3268203735352	62.18106460571289	1013.078979492188	-294.0142822265625	56.24809265136719	1093.101684570312	-185.1092529296875	523.314208984375	1306.138061523438	-203.9338684082031	792.7786865234375	1342.470458984375	-269.0442504882812	41.96167755126953	1254.795532226562	-202.5424499511719	397.4160766601562	1301.035888671875	-50.49468231201172	46.14341735839844	1270.562255859375	-98.34641265869141	54.05690002441406	1218.27392578125	-152.2530822753906	46.36996459960938	1300.25	-300.0346069335938	48.83734130859375	1189.455688476562	
652	6.51	-345.3226623535156	1036.777954101562	1238.352661132812	-323.4559326171875	1026.238159179688	1065.019897460938	-331.3321533203125	1090.132202148438	1146.48388671875	-88.41696166992188	1292.975463867188	1211.206420898438	-348.4261169433594	1224.966186523438	1136.280639648438	-291.4201965332031	1491.828857421875	1149.167724609375	-118.3860321044922	1407.4091796875	1201.295288085938	-370.4417114257812	1353.096313476562	1204.205444335938	-284.8089904785156	1455.73681640625	1045.412719726562	-164.5121917724609	1459.36669921875	1005.504089355469	-156.3831634521484	1333.87109375	927.5191650390625	-122.9985427856445	1119.963745117188	911.0911865234375	-208.1855926513672	1102.1591796875	971.9854736328125	-44.20989990234375	887.1638793945312	1006.980834960938	-79.63254547119141	871.2686767578125	932.3068237304688	-95.54380035400391	1011.730285644531	912.8850708007812	-28.95053482055664	704.4412231445312	1038.996337890625	-46.17005157470703	791.9764404296875	951.1587524414062	-18.26204299926758	806.289794921875	1015.272155761719	-278.4573059082031	1459.3203125	1334.32470703125	-309.0655517578125	1394.705810546875	1392.298217773438	-365.6044616699219	1142.271362304688	1439.304321289062	-324.4979858398438	1109.494018554688	1354.549072265625	-222.2002868652344	886.196044921875	1453.457885742188	-304.7853088378906	875.401123046875	1481.312744140625	-358.5070495605469	1060.1865234375	1457.236694335938	-233.5052947998047	694.2984008789062	1430.229736328125	-211.3748474121094	778.3421630859375	1457.46923828125	-281.3901062011719	783.153564453125	1489.342895507812	-244.2029266357422	1679.04931640625	1119.125122070312	-83.10106658935547	1697.570068359375	1261.540283203125	-68.2501220703125	1703.526489257812	1136.37255859375	-252.0926513671875	1665.200927734375	1256.17529296875	-201.8216857910156	969.8416137695312	994.3585205078125	-296.5375366210938	963.0501098632812	1326.179809570312	-170.4835968017578	981.828125	1334.457763671875	-105.0276718139648	981.49658203125	1074.18603515625	-72.76473999023438	511.003662109375	1075.757690429688	-117.1572341918945	648.6937866210938	1023.958862304688	-222.7126007080078	61.45988464355469	1032.13671875	-157.299072265625	272.5875549316406	1038.61865234375	-27.4164867401123	75.32731628417969	1077.621826171875	-81.41353607177734	60.07809448242188	1119.858520507812	-116.1732635498047	62.00177001953125	1015.096313476562	-288.3033752441406	54.1547737121582	1096.167846679688	-183.86083984375	523.1419677734375	1306.669189453125	-201.3324584960938	792.5691528320312	1343.4638671875	-269.0348205566406	41.94798278808594	1254.860107421875	-201.7427825927734	397.2928161621094	1301.437622070312	-50.58843612670898	46.15621948242188	1270.6328125	-98.37445068359375	54.07369995117188	1218.285400390625	-152.2553863525391	46.36300659179688	1300.236572265625	-300.047607421875	48.88180541992188	1189.5302734375	
